# xmcd
#
# Track frame offsets: 
#        150
#        27365
#        47699
#        83638
#        114968
#        128580
#        149295
#        174336
#        207067
#        224577
#        242355
#        260341
#        279122
#        297809
#        322256
#
# Disc length: 4608 seconds
#
# Revision: 1
# Processed by: cddbd v1.5.2PL0 Copyright (c) Steve Scherf et al.
# Submitted via: ExactAudioCopyFreeDBPlugin 1.0
#
DISCID=cf11fe0f
DTITLE=The Impressions - Come to My Party and Fan the Fire
DYEAR=1999
DGENRE=Soul
TTITLE0=Come to My Party
TTITLE1=I Could Never Make You Stay
TTITLE2=This Can't Be Real
TTITLE3=Sorry
TTITLE4=Maybe I'm Mistaken
TTITLE5=All I Want to Do Is Make Love to You
TTITLE6=Whole Lot of Good, Good Lovin'
TTITLE7=Fan the Fire
TTITLE8=I Don't Wanna Lose Your Love
TTITLE9=Love, Love, Love
TTITLE10=You're Mine
TTITLE11=I Surrender
TTITLE12=I Don't Mind
TTITLE13=Take Everything
TTITLE14=For Your Precious Love '81
EXTD=
EXTT0=
EXTT1=
EXTT2=
EXTT3=
EXTT4=
EXTT5=
EXTT6=
EXTT7=
EXTT8=
EXTT9=
EXTT10=
EXTT11=
EXTT12=
EXTT13=
EXTT14=
PLAYORDER=
